# xmcd
#
# Track frame offsets: 
#        150
#        16277
#        27505
#        47254
#        58644
#        69062
#        89224
#        107806
#        118820
#        132909
#        146789
#        158165
#        169438
#        179978
#        191730
#
# Disc length: 2677 seconds
#
# Revision: 1
# Processed by: cddbd v1.5.2PL0 Copyright (c) Steve Scherf et al.
# Submitted via: ExactAudioCopyFreeDBPlugin 1.0
#
DISCID=e00a730f
DTITLE=Various Artist - Downhomer Newfoundland Christmas
DYEAR=1999
DGENRE=Celtic
TTITLE0=A Frank Willis - Hello Mom and Dad
TTITLE1=Dick Nolan - Blue At Chrismas
TTITLE2=Angus Doucette - Lonesome Chrismas
TTITLE3=The Soiree's - Batteries Not Included
TTITLE4=Fogo Island Accordion Group - Santa's Jig
TTITLE5=Ellis Coles - Why Santa Goes Ho Ho
TTITLE6=Brian Burton - Grandma Got Run Over By A Reindeer
TTITLE7=Eddie Coffey - Christmas Morn In Newfoundland
TTITLE8=Bob MacDonald - Mary's Boy Child
TTITLE9=Lee Vaughn - On This Christmas Day
TTITLE10=Dick Nolan - Good Old Newfie Christmas
TTITLE11=Bob MacDonald - Frosty The Snowman
TTITLE12=Chuck Simms - Let The Mummers In
TTITLE13=Reg Watkins - Mummer's Party Jig
TTITLE14=Uncle Harry's Bar Band - Plank'er Down
EXTD=
EXTT0=
EXTT1=
EXTT2=
EXTT3=
EXTT4=
EXTT5=
EXTT6=
EXTT7=
EXTT8=
EXTT9=
EXTT10=
EXTT11=
EXTT12=
EXTT13=
EXTT14=
PLAYORDER=
